<?xml version="1.0" encoding="utf-8"?>
<!-- Generator: Adobe Illustrator 17.0.0, SVG Export Plug-In . SVG Version: 6.00 Build 0)  -->
<!DOCTYPE svg PUBLIC "-//W3C//DTD SVG 1.1//EN" "http://www.w3.org/Graphics/SVG/1.1/DTD/svg11.dtd">
<svg version="1.1" id="Capa_1" xmlns="http://www.w3.org/2000/svg" xmlns:xlink="http://www.w3.org/1999/xlink" x="0px" y="0px"
	 width="47px" height="47px" viewBox="0 0 47 47" enable-background="new 0 0 47 47" xml:space="preserve">
<g>
	<g id="Layer_1_110_">
		<g>
			<circle fill="#FBFCFD" cx="22.828" cy="23.5" r="20.583"/>
		</g>
		<g>
			<path fill="#019875" d="M14.198,18.636c-1.055,1.388-0.335,3.709,1.607,5.186c1.006,0.766,2.141,1.15,3.149,1.15
				c0.645,0,1.238-0.158,1.711-0.474c0.56,0.869,1.818,1.478,3.286,1.478c1.494,0,2.774-0.628,3.319-1.522
				c0.046,0.001,0.093,0.002,0.139,0.002c0.732,0,1.515-0.17,2.272-0.528c2.161-1.022,3.283-3.181,2.507-4.819
				c-0.041-0.088-0.104-0.159-0.154-0.238c0.25-0.497,0.4-1.046,0.4-1.63c0-0.924-0.364-1.761-0.945-2.427
				c0.728-1.399-0.277-3.515-2.343-4.82c-0.31-0.195-0.627-0.354-0.944-0.491c0.059-1.069-0.781-2.192-2.108-2.681
				c-0.426-0.157-0.856-0.231-1.265-0.231c-0.814,0-1.544,0.293-1.994,0.811c-0.703-0.655-1.62-1.038-2.577-1.038
				c-0.295,0-0.594,0.037-0.892,0.113c-2.022,0.515-3.22,2.662-2.676,4.791c0.039,0.151,0.102,0.289,0.155,0.432
				c-1.758,0.397-3.073,1.961-3.073,3.839c0,0.995,0.381,1.893,0.989,2.587C14.55,18.266,14.355,18.429,14.198,18.636z"/>
			<path fill="#019875" d="M31.77,36.37h-6.516v-9.476c-0.417,0.09-0.85,0.149-1.304,0.149c-1.162,0-2.229-0.329-3.059-0.88V36.37
				h-6.516c-0.59,0-1.069,0.478-1.069,1.069c0,0.591,0.478,1.069,1.069,1.069H31.77c0.59,0,1.069-0.478,1.069-1.069
				C32.839,36.848,32.36,36.37,31.77,36.37z"/>
		</g>
	</g>
</g>
</svg>
