<?xml version="1.0" encoding="utf-8"?>
<!-- Generator: Adobe Illustrator 17.0.0, SVG Export Plug-In . SVG Version: 6.00 Build 0)  -->
<!DOCTYPE svg PUBLIC "-//W3C//DTD SVG 1.1//EN" "http://www.w3.org/Graphics/SVG/1.1/DTD/svg11.dtd">
<svg version="1.1" id="Capa_1" xmlns="http://www.w3.org/2000/svg" xmlns:xlink="http://www.w3.org/1999/xlink" x="0px" y="0px"
	 width="612px" height="792px" viewBox="0 0 612 792" enable-background="new 0 0 612 792" xml:space="preserve">
<g>
	<g>
		<path fill="#334CD7" d="M609.97,341.077c0-31.385-3.706-61.026-11.115-88.923c-7.412-27.897-15.692-50.128-24.846-66.692
			s-19.398-31.82-30.731-45.769c-11.335-13.949-19.615-23.103-24.846-27.462c-5.231-4.368-9.591-7.42-13.077-9.154L490.97,92.615
			l-15.692,10.462c-25.283,16.565-51,24.846-77.154,24.846c-29.643,0-54.923-7.846-75.846-23.538l-17-14.385l-17,14.385
			c-20.051,15.692-44.897,23.538-74.538,23.538c-26.154,0-51.872-8.282-77.154-24.846l-15.692-10.462l-14.385,10.462
			c-4.359,2.615-9.372,6.32-15.038,11.115c-5.666,4.797-14.166,14.169-25.5,28.115c-11.334,13.95-21.359,29.207-30.077,45.769
			c-8.718,16.565-16.565,38.577-23.538,66.038S1.894,310.565,1.894,341.077c-0.872,5.231,0.654,17,4.577,35.308
			c3.923,18.308,12.423,43.372,25.5,75.192s29.859,63.205,50.346,94.154s50.346,61.243,89.577,90.885
			c39.231,29.641,83.692,51.435,133.385,65.385c54.923-15.692,102.654-38.359,143.192-68c40.538-29.641,70.832-59.5,90.883-89.577
			c20.049-30.077,35.962-61.026,47.731-92.846s18.742-56.231,20.923-73.231C610.189,361.346,610.841,348.923,609.97,341.077z
			 M555.045,379c-1.745,15.692-7.412,37.488-17,65.385c-9.591,27.897-22.449,54.705-38.576,80.423
			c-16.129,25.718-41.192,50.565-75.192,74.538s-73.668,40.32-119,49.038c-40.103-8.718-76.065-25.065-107.885-49.038
			s-56.449-49.257-73.885-75.846c-17.435-26.589-31.603-53.834-42.5-81.731s-18.089-50.128-21.577-66.692
			c-3.488-16.565-4.795-26.589-3.923-30.077v3.923c0-41.846,4.359-68.872,13.077-81.077h474.692
			c8.717,13.077,13.077,40.103,13.077,81.077C557.223,353.282,556.787,363.308,555.045,379z"/>
	</g>
</g>
<text transform="matrix(1 0 0 1 159.501 502.7197)" fill="#0068E9" font-family="'Sylfaen'" font-size="281.4851">PS</text>
</svg>
